<svg height="489.833" viewBox="0 0 772.167 489.833" width="772.167" xmlns="http://www.w3.org/2000/svg"><path d="m0 0h772.167v489.833h-772.167z" fill="#fff"/><g stroke="#43699f" stroke-width="4"><path d="m146.806 45.433v385.9h560.9" fill="none"/><path d="m146.806 45.433 4.8 3.2-4.8-12.8-4.8 12.8z" fill="#43699f"/><path d="m707.706 431.333-3.2 4.8 12.8-4.8-12.8-4.8z" fill="#43699f"/><path d="m147.928 431.333s-49.306-334 505.694-334" fill="none"/></g><path d="m146.806 92.333h505.694" fill="none" stroke="#000" stroke-dasharray="30 12 3 12" stroke-width="3"/><path d="m146.806 232.833h94.458" fill="none" stroke="#000" stroke-dasharray="30 12 3 12" stroke-width="3"/><path d="m217.264 431.333v-242.955" fill="none" stroke="#000" stroke-dasharray="30 12 3 12" stroke-width="3"/><text transform="translate(101.983 80.833)"><tspan fill="#656565" font-family="Avenir-Medium" font-size="37" x="-11.304" y="11">V</tspan></text><text transform="translate(101.983 119.333)"><tspan fill="#656565" font-family="Avenir-Medium" font-size="37" x="-11.304" y="11">R</tspan></text><path d="m89.713 97.333h25.54" fill="none" stroke="#656565" stroke-width="5"/><text transform="translate(216.764 462.333)"><tspan fill="#656565" font-family="Avenir-Medium" font-size="37" x="-28.101" y="9.5">L/R</tspan></text><text transform="translate(237.11 38.333)"><tspan fill="#656565" font-family="Avenir-Medium" font-size="37" x="-79.513" y="11.5">Current, I</tspan></text><text transform="translate(653.502 398.333)"><tspan fill="#656565" font-family="Avenir-Medium" font-size="37" x="-58.238" y="11">Time, t</tspan></text><text transform="translate(88.423 249.833)"><tspan fill="#656565" font-family="Avenir-Medium" font-size="37" x="-47.656" y="-14.5">0.63V</tspan></text><text transform="translate(88.423 265.833)"><tspan fill="#656565" font-family="Avenir-Medium" font-size="37" x="-11.304" y="11">R</tspan></text><path d="m36.204 242.833h101.3" fill="none" stroke="#656565" stroke-width="5"/></svg>