<svg height="313.333" viewBox="0 0 536 313.333" width="536" xmlns="http://www.w3.org/2000/svg"><path d="m0 0h536v313.333h-536z" fill="#fff"/><path d="m247.758 25.302c0 5.134-4.162 9.296-9.296 9.296s-9.295-4.162-9.295-9.296c0-5.133 4.161-9.295 9.295-9.295s9.296 4.162 9.296 9.295z" fill="#fff"/><path d="m247.758 25.302c0 5.134-4.162 9.296-9.296 9.296s-9.295-4.162-9.295-9.296c0-5.133 4.161-9.295 9.295-9.295s9.296 4.162 9.296 9.295z" fill="none" stroke="#000" stroke-width="2"/><path d="m305.98 25.302c0 5.134-4.162 9.296-9.296 9.296s-9.295-4.162-9.295-9.296c0-5.133 4.161-9.295 9.295-9.295s9.296 4.162 9.296 9.295z" fill="#fff"/><g fill="none" stroke="#000"><path d="m305.98 25.302c0 5.134-4.162 9.296-9.296 9.296s-9.295-4.162-9.295-9.296c0-5.133 4.161-9.295 9.295-9.295s9.296 4.162 9.296 9.295z" stroke-width="2"/><path d="m234.119 13.166h64.796" stroke-width="4"/><path d="m81.499 23.882v269.226" stroke-width="3"/><path d="m81.499 293.108h383.123" stroke-width="3"/><path d="m464.622 293.108v-269.226" stroke-width="3"/><path d="m464.622 23.882h-158.644" stroke-width="3"/><path d="m81.498 23.882h147.667" stroke-width="3"/></g><path d="m459.623 89.662h10.342v118.953h-10.342z" fill="#fff"/><path d="m464.623 188.222c27.61-12.618 26.676 34.522.149 21.551" fill="none" stroke="#000" stroke-miterlimit="3" stroke-width="2"/><path d="m464.623 168.114c27.61-12.617 26.676 34.523.149 21.552" fill="none" stroke="#000" stroke-width="2"/><path d="m464.623 148.333c27.61-12.618 26.676 34.522.149 21.551" fill="none" stroke="#000" stroke-width="2"/><path d="m464.623 129.413c27.61-12.617 26.676 34.523.149 21.552" fill="none" stroke="#000" stroke-width="2"/><path d="m464.623 110.184c27.61-12.617 26.676 34.523.149 21.551" fill="none" stroke="#000" stroke-width="2"/><path d="m464.623 90.162c27.61-12.617 26.676 34.523.149 21.551" fill="none" stroke="#000" stroke-miterlimit="2" stroke-width="2"/><path d="m57.583 98.733h49.232v16.928h-49.232z" fill="#fffdfd"/><path d="m39.623 97.305h85.797" fill="none" stroke="#000" stroke-width="5"/><path d="m61.391 118.721h42.616" fill="none" stroke="#000" stroke-width="12"/><text transform="translate(122.135 83.138)"><tspan font-family="ArialMT" font-size="19" x="-5.548" y="6">+</tspan></text><path d="m57.583 171.733h49.232v16.928h-49.232z" fill="#fffdfd"/><path d="m39.623 170.305h85.797" fill="none" stroke="#000" stroke-width="5"/><path d="m61.391 191.721h42.616" fill="none" stroke="#000" stroke-width="12"/><text transform="translate(120.417 198.054)"><tspan font-family="ArialMT" font-size="23" x="-3.83" y="7.5">-</tspan></text><path d="m75.522 124.398h13v42.875h-13z" fill="#fffdfd"/><path d="m82.183 118.721v51.584" fill="none" stroke="#000" stroke-dasharray="6 4" stroke-width="2"/><path d="m302.941 281.981v22.255h-70.739v-22.255z" fill="#fff"/><path d="m302.941 281.981v22.255h-70.739v-22.255z" fill="none" stroke="#000" stroke-width="2"/><text transform="translate(448.819 156.667)"><tspan fill="#656565" font-family="Avenir-Medium" font-size="37" x="-9.601" y="11">L</tspan></text><text transform="translate(268 257.167)"><tspan fill="#656565" font-family="Avenir-Medium" font-size="37" x="-11.304" y="11">R</tspan></text><text transform="translate(138.872 146.667)"><tspan fill="#656565" font-family="Avenir-Medium" font-size="37" x="-11.655" y="11">V</tspan></text></svg>